<?xml version="1.0" encoding="UTF-8" standalone="no"?>
<!DOCTYPE svg PUBLIC "-//W3C//DTD SVG 1.1//EN" "http://www.w3.org/Graphics/SVG/1.1/DTD/svg11.dtd">
<svg xmlns="http://www.w3.org/2000/svg" version="1.1" viewBox="0.00 0.00 400.00 151.00">
<path fill="#f75c1d" d="
  M 66.49 25.20
  A 0.28 0.28 0.0 0 0 65.97 25.19
  L 54.09 56.40
  A 0.54 0.53 29.0 0 1 53.27 56.63
  L 44.22 49.91
  Q 43.88 49.66 44.02 49.26
  C 46.88 41.20 57.91 16.39 51.89 9.50
  Q 51.20 8.71 52.25 8.71
  L 77.75 8.77
  Q 78.33 8.77 78.50 9.32
  C 88.72 41.97 99.35 74.98 113.31 106.22
  Q 115.96 112.14 120.15 119.15
  A 0.21 0.21 0.0 0 1 119.87 119.44
  Q 105.65 111.68 93.76 100.51
  Q 92.72 99.52 92.25 98.21
  Q 79.33 61.65 66.49 25.20
  Z"
/>
<path fill="#f75c1d" d="
  M 149.37 65.70
  L 144.32 79.49
  Q 144.13 80.00 143.59 80.00
  L 135.80 80.00
  Q 135.11 80.00 135.37 79.36
  L 157.36 24.03
  A 3.47 3.47 0.0 0 1 163.80 24.03
  L 185.73 79.27
  Q 186.02 80.00 185.24 80.00
  L 177.85 80.00
  A 1.24 1.24 0.0 0 1 176.69 79.19
  L 171.67 65.51
  A 0.78 0.76 -9.6 0 0 170.94 65.00
  L 150.37 65.00
  A 1.06 1.05 9.7 0 0 149.37 65.70
  Z
  M 152.40 57.31
  A 0.32 0.32 0.0 0 0 152.70 57.74
  L 168.39 57.77
  A 0.32 0.32 0.0 0 0 168.69 57.34
  L 160.89 36.03
  A 0.32 0.32 0.0 0 0 160.28 36.03
  L 152.40 57.31
  Z"
/>
<path fill="#f75c1d" d="
  M 196.95 22.82
  A 0.61 0.61 0.0 0 1 197.56 22.21
  L 217.21 22.18
  A 28.34 28.24 89.9 0 1 245.50 50.47
  L 245.50 51.67
  A 28.34 28.24 89.9 0 1 217.31 80.06
  L 197.66 80.09
  A 0.61 0.61 0.0 0 1 197.05 79.48
  L 196.95 22.82
  Z
  M 205.30 30.15
  L 205.30 72.09
  A 0.74 0.74 0.0 0 0 206.04 72.83
  L 217.54 72.83
  A 20.53 19.46 -90.0 0 0 237.00 52.30
  L 237.00 49.94
  A 20.53 19.46 90.0 0 0 217.54 29.41
  L 206.04 29.41
  A 0.74 0.74 0.0 0 0 205.30 30.15
  Z"
/>
<path fill="#f75c1d" d="
  M 289.90 61.53
  A 0.32 0.31 61.3 0 0 289.77 61.99
  L 301.31 79.44
  Q 301.68 80.00 301.00 80.00
  L 293.03 80.00
  Q 292.41 80.00 292.06 79.48
  L 281.81 63.75
  Q 281.48 63.25 280.88 63.25
  L 269.13 63.25
  Q 268.50 63.25 268.50 63.88
  L 268.50 79.38
  Q 268.50 80.02 267.87 80.01
  L 260.54 79.97
  A 0.31 0.31 0.0 0 1 260.23 79.66
  L 260.23 22.89
  Q 260.23 22.29 260.84 22.28
  Q 268.01 22.17 281.01 22.31
  C 303.14 22.53 309.60 52.22 289.90 61.53
  Z
  M 268.46 29.96
  L 268.55 55.76
  A 0.50 0.50 0.0 0 0 269.05 56.26
  L 280.97 56.22
  A 12.66 12.30 89.8 0 0 293.22 43.52
  L 293.22 42.04
  A 12.66 12.30 89.8 0 0 280.87 29.42
  L 268.95 29.46
  A 0.50 0.50 0.0 0 0 268.46 29.96
  Z"
/>
<rect fill="#f75c1d" x="317.22" y="22.26" width="8.28" height="57.74" rx="0.57"/>
<path fill="#f75c1d" d="
  M 352.21 65.56
  Q 349.69 72.58 347.08 79.56
  A 0.67 0.67 0.0 0 1 346.45 80.00
  L 338.65 80.00
  Q 337.95 80.00 338.20 79.35
  L 360.12 24.08
  A 3.51 3.51 0.0 0 1 366.65 24.08
  L 388.57 79.33
  Q 388.83 80.00 388.11 80.00
  L 380.39 80.00
  Q 379.84 80.00 379.64 79.48
  L 374.50 65.60
  Q 374.28 65.00 373.64 65.00
  L 353.01 65.00
  A 0.86 0.85 -79.6 0 0 352.21 65.56
  Z
  M 355.25 57.30
  A 0.34 0.34 0.0 0 0 355.57 57.75
  L 371.15 57.75
  A 0.34 0.34 0.0 0 0 371.47 57.30
  L 363.68 36.11
  A 0.34 0.34 0.0 0 0 363.04 36.11
  L 355.25 57.30
  Z"
/>
<path fill="#a1a1a1" d="
  M 159.11 140.74
  A 0.22 0.22 0.0 0 1 159.09 141.18
  C 129.55 144.90 95.14 143.39 75.07 117.44
  C 66.16 105.92 59.23 90.78 53.20 80.06
  C 43.77 63.28 30.25 50.34 11.41 45.00
  A 0.36 0.36 0.0 0 1 11.57 44.29
  Q 38.52 48.81 56.72 67.18
  C 63.39 73.91 71.71 84.37 79.47 93.81
  Q 110.39 131.45 159.11 140.74
  Z"
/>
<path fill="#f75c1d" d="
  M 41.89 90.03
  A 0.50 0.49 39.1 0 0 41.01 90.12
  Q 37.18 100.06 33.39 110.02
  C 30.91 116.56 31.26 121.10 36.59 125.58
  A 0.52 0.52 0.0 0 1 36.26 126.50
  L 10.75 126.50
  A 0.41 0.40 17.8 0 1 10.42 125.86
  C 12.93 122.37 15.17 118.81 17.15 114.79
  Q 28.33 92.10 36.94 68.45
  A 0.69 0.69 0.0 0 1 38.10 68.23
  C 47.14 78.24 52.64 93.31 59.14 105.80
  Q 72.85 132.12 100.16 142.95
  A 0.33 0.33 0.0 0 1 99.95 143.58
  Q 62.92 134.16 47.15 99.70
  Q 44.78 94.51 41.89 90.03
  Z"
/>
<rect fill="#a5a188" x="135.04" y="87.75" width="253.70" height="1.50" rx="0.73"/>
<path fill="#a1a1a1" d="
  M 163.97 103.25
  C 178.18 108.07 162.70 115.18 160.53 109.21
  A 0.81 0.81 0.0 0 1 161.87 108.37
  Q 164.42 110.99 167.35 108.94
  A 1.66 1.66 0.0 0 0 166.86 105.99
  C 164.72 105.37 157.61 103.04 161.78 99.32
  Q 165.15 96.31 169.25 99.58
  A 0.81 0.80 34.8 0 1 169.44 100.62
  Q 168.96 101.44 168.23 100.77
  C 166.31 98.99 161.06 99.29 163.27 102.70
  Q 163.52 103.10 163.97 103.25
  Z"
/>
<path fill="#a1a1a1" d="
  M 208.95 100.08
  A 1.59 1.59 0.0 0 0 208.96 102.97
  C 211.09 103.93 215.48 104.56 215.28 107.75
  C 214.98 112.52 208.27 112.16 205.72 109.25
  A 0.64 0.64 0.0 0 1 206.35 108.20
  Q 206.68 108.27 206.91 108.26
  A 0.98 0.96 -23.0 0 1 207.68 108.56
  Q 209.50 110.48 212.22 109.46
  A 1.90 1.90 0.0 0 0 212.06 105.85
  C 200.47 102.61 208.75 94.44 214.89 99.82
  Q 215.22 100.11 214.97 100.48
  L 214.54 101.13
  A 0.57 0.57 0.0 0 1 213.63 101.18
  Q 211.68 98.82 208.95 100.08
  Z"
/>
<path fill="#a1a1a1" d="
  M 283.61 109.61
  Q 285.81 110.29 287.88 108.63
  A 0.85 0.85 0.0 0 1 289.16 108.89
  C 290.06 110.60 286.42 111.34 285.52 111.44
  C 277.99 112.33 275.66 101.40 282.56 98.31
  Q 286.06 96.74 289.17 99.65
  Q 289.60 100.05 289.24 100.51
  L 288.93 100.90
  Q 288.50 101.44 287.98 100.99
  C 281.49 95.44 276.84 107.51 283.61 109.61
  Z"
/>
<path fill="#a1a1a1" d="
  M 327.3765 111.4363
  A 6.77 6.52 85.2 0 1 320.3129 105.2356
  A 6.77 6.52 85.2 0 1 326.2435 97.9437
  A 6.77 6.52 85.2 0 1 333.3071 104.1444
  A 6.77 6.52 85.2 0 1 327.3765 111.4363
  Z
  M 326.7132 109.7591
  A 5.04 4.52 91.1 0 0 331.3292 104.8068
  A 5.04 4.52 91.1 0 0 326.9068 99.6809
  A 5.04 4.52 91.1 0 0 322.2908 104.6332
  A 5.04 4.52 91.1 0 0 326.7132 109.7591
  Z"
/>
<path fill="#a1a1a1" d="
  M 372.03 105.72
  L 369.43 105.38
  Q 368.95 105.32 369.06 104.85
  L 369.17 104.36
  Q 369.25 104.00 369.63 104.00
  L 373.88 104.00
  Q 374.50 104.00 374.50 104.63
  L 374.50 110.90
  Q 374.50 111.69 373.80 111.33
  L 372.02 110.42
  A 0.71 0.70 -47.0 0 0 371.33 110.45
  Q 366.93 113.09 363.55 109.72
  C 357.74 103.93 364.93 94.05 372.36 99.48
  A 0.62 0.61 41.0 0 1 372.43 100.41
  L 371.91 100.93
  Q 371.52 101.32 371.09 100.96
  C 368.25 98.62 364.58 99.44 363.62 103.08
  C 362.00 109.20 369.50 112.82 372.42 106.41
  Q 372.69 105.80 372.03 105.72
  Z"
/>
<path fill="#a1a1a1" d="
  M 135.52 98.30
  C 138.97 97.25 145.25 98.33 142.40 103.45
  A 0.75 0.74 37.0 0 0 142.53 104.34
  Q 144.24 106.06 143.74 108.25
  C 142.87 112.03 138.32 111.34 135.47 111.23
  Q 135.00 111.21 135.00 110.73
  L 135.00 99.00
  Q 135.00 98.46 135.52 98.30
  Z
  M 140.9929 100.7697
  A 0.91 0.91 0.0 0 0 140.1005 99.8424
  L 137.8009 99.7982
  A 0.91 0.91 0.0 0 0 136.8736 100.6906
  L 136.8471 102.0703
  A 0.91 0.91 0.0 0 0 137.7395 102.9976
  L 140.0391 103.0418
  A 0.91 0.91 0.0 0 0 140.9664 102.1494
  L 140.9929 100.7697
  Z
  M 136.92 105.61
  L 136.90 108.83
  A 0.89 0.89 0.0 0 0 137.79 109.72
  L 138.82 109.73
  A 3.10 2.32 0.3 0 0 141.93 107.42
  L 141.93 107.06
  A 3.10 2.32 0.3 0 0 138.84 104.73
  L 137.81 104.72
  A 0.89 0.89 0.0 0 0 136.92 105.61
  Z"
/>
<path fill="#a1a1a1" d="
  M 156.86 98.10
  A 0.71 0.70 -2.3 0 1 157.68 98.85
  C 157.47 101.76 158.28 108.52 155.82 110.38
  C 153.61 112.06 150.17 111.97 148.39 109.73
  C 146.54 107.42 147.33 102.24 146.98 99.07
  Q 146.89 98.19 147.78 98.12
  L 148.55 98.07
  A 0.64 0.63 87.5 0 1 149.24 98.71
  C 149.26 100.92 148.71 106.70 149.72 108.45
  C 150.75 110.23 153.65 110.25 154.95 108.60
  C 155.98 107.28 155.51 100.88 155.49 98.98
  Q 155.49 98.31 156.14 98.21
  L 156.86 98.10
  Z"
/>
<rect fill="#a1a1a1" x="-1.02" y="-6.69" transform="translate(174.03,104.71) rotate(0.3)" width="2.04" height="13.38" rx="0.93"/>
<path fill="#a1a1a1" d="
  M 187.94 107.80
  A 0.41 0.41 0.0 0 0 188.70 107.57
  L 188.43 99.23
  Q 188.42 98.66 188.86 98.30
  Q 189.57 97.71 190.35 98.57
  Q 190.50 98.72 190.50 98.94
  L 190.50 110.27
  A 1.40 1.40 0.0 0 1 187.92 111.01
  L 182.19 101.90
  A 0.54 0.54 0.0 0 0 181.20 102.19
  L 181.27 110.74
  Q 181.28 111.25 180.76 111.25
  L 180.01 111.25
  Q 179.39 111.25 179.42 110.63
  Q 179.68 105.04 179.38 99.39
  A 1.46 1.45 -62.7 0 1 182.06 98.53
  L 187.94 107.80
  Z"
/>
<path fill="#a1a1a1" d="
  M 196.19 100.41
  L 196.36 103.30
  A 0.58 0.58 0.0 0 0 197.12 103.82
  Q 199.18 103.16 201.23 103.72
  A 0.78 0.78 0.0 0 1 201.02 105.25
  L 196.86 105.25
  A 0.63 0.63 0.0 0 0 196.23 105.89
  L 196.30 109.19
  A 0.57 0.57 0.0 0 0 196.87 109.75
  L 202.69 109.75
  Q 203.18 109.75 203.22 110.25
  L 203.26 110.72
  Q 203.30 111.25 202.77 111.25
  L 194.90 111.25
  Q 194.29 111.25 194.29 110.65
  L 194.29 99.02
  A 1.01 1.00 -90.0 0 1 195.29 98.01
  L 202.33 98.00
  Q 203.17 97.99 203.08 98.83
  L 203.03 99.22
  Q 202.97 99.73 202.47 99.73
  L 196.78 99.79
  A 0.59 0.59 0.0 0 0 196.19 100.41
  Z"
/>
<path fill="#a1a1a1" d="
  M 219.65 108.33
  C 221.47 109.86 223.97 110.69 225.42 108.36
  A 1.61 1.61 0.0 0 0 224.65 106.02
  C 222.28 105.08 216.51 103.81 219.22 99.74
  C 221.10 96.92 225.17 97.74 227.33 99.77
  A 0.57 0.57 0.0 0 1 227.34 100.60
  L 226.81 101.14
  A 0.57 0.56 -43.3 0 1 226.00 101.12
  Q 223.70 98.51 220.98 100.37
  A 1.53 1.52 35.9 0 0 221.42 103.09
  C 234.28 106.83 224.22 115.05 218.38 109.54
  Q 217.97 109.15 218.37 108.76
  L 218.75 108.37
  Q 219.18 107.94 219.65 108.33
  Z"
/>
<path fill="#a1a1a1" d="
  M 244.50 106.70
  Q 245.15 106.21 245.99 106.24
  A 0.52 0.52 0.0 0 1 246.38 107.08
  Q 244.81 109.03 247.13 110.36
  A 0.45 0.45 0.0 0 1 247.23 111.07
  L 247.03 111.26
  Q 246.71 111.58 246.28 111.45
  Q 245.40 111.17 244.69 110.63
  Q 244.24 110.29 243.77 110.59
  C 238.61 113.82 233.04 107.81 237.78 103.37
  A 0.76 0.76 0.0 0 0 237.95 102.51
  Q 236.49 99.25 239.80 97.99
  A 2.48 2.48 0.0 0 1 242.88 99.18
  Q 244.33 102.05 241.70 103.67
  A 0.47 0.46 -35.5 0 0 241.58 104.36
  L 243.40 106.57
  A 0.81 0.80 -37.8 0 0 244.50 106.70
  Z
  M 241.66 101.14
  A 1.20 1.20 0.0 0 0 240.46 99.94
  A 1.20 1.20 0.0 0 0 239.26 101.14
  A 1.20 1.20 0.0 0 0 240.46 102.34
  A 1.20 1.20 0.0 0 0 241.66 101.14
  Z
  M 242.86 108.58
  L 239.39 104.53
  A 0.23 0.23 0.0 0 0 239.06 104.50
  L 238.96 104.59
  A 2.91 2.89 -40.6 0 0 238.63 108.68
  L 238.64 108.69
  A 2.91 2.89 -40.6 0 0 242.73 109.00
  L 242.84 108.90
  A 0.23 0.23 0.0 0 0 242.86 108.58
  Z"
/>
<path fill="#a1a1a1" d="
  M 258.44 99.85
  L 255.23 99.69
  Q 254.73 99.66 254.78 99.16
  L 254.83 98.64
  Q 254.89 98.00 255.54 98.00
  L 264.04 98.00
  A 0.80 0.80 0.0 0 1 264.36 99.54
  Q 263.20 100.05 261.87 99.76
  Q 260.75 99.52 260.75 100.67
  L 260.75 110.62
  Q 260.75 111.25 260.13 111.25
  L 259.36 111.25
  A 0.64 0.63 -90.0 0 1 258.73 110.61
  L 258.79 100.23
  A 0.37 0.37 0.0 0 0 258.44 99.85
  Z"
/>
<path fill="#a1a1a1" d="
  M 269.02 103.43
  A 0.19 0.18 88.6 0 0 269.21 103.62
  Q 272.67 103.51 273.94 103.81
  A 0.73 0.73 0.0 0 1 273.78 105.25
  L 269.63 105.25
  Q 269.00 105.25 269.00 105.88
  L 269.00 109.13
  Q 269.00 109.75 269.63 109.75
  L 275.63 109.75
  A 0.37 0.37 0.0 0 1 275.99 110.20
  L 275.83 110.89
  Q 275.75 111.25 275.37 111.25
  L 267.50 111.25
  Q 267.00 111.25 267.00 110.75
  L 267.00 98.76
  A 0.79 0.78 -0.4 0 1 267.78 97.98
  C 268.62 97.98 276.51 97.30 275.73 99.30
  A 0.71 0.70 10.1 0 1 275.07 99.75
  L 269.62 99.75
  Q 268.99 99.75 268.99 100.38
  L 269.02 103.43
  Z"
/>
<path fill="#a1a1a1" d="
  M 292.48 110.77
  L 292.45 98.83
  Q 292.45 98.34 292.91 98.17
  L 293.33 98.01
  A 0.85 0.84 -8.0 0 1 294.46 98.86
  L 294.18 103.02
  A 0.91 0.90 2.4 0 0 295.08 103.99
  L 299.57 104.01
  A 1.01 1.00 87.6 0 0 300.57 102.92
  L 300.24 99.05
  Q 300.19 98.45 300.75 98.23
  L 301.34 98.01
  A 0.73 0.72 -10.0 0 1 302.32 98.69
  L 302.22 110.73
  Q 302.21 111.23 301.71 111.23
  L 300.92 111.23
  A 0.60 0.59 1.4 0 1 300.32 110.61
  L 300.55 106.17
  Q 300.59 105.50 299.92 105.50
  L 295.01 105.50
  Q 294.40 105.50 294.32 106.10
  C 294.14 107.52 295.32 112.11 292.77 111.18
  A 0.43 0.43 0.0 0 1 292.48 110.77
  Z"
/>
<path fill="#a1a1a1" d="
  M 315.50 107.37
  C 315.57 105.91 314.79 98.41 316.24 98.02
  A 1.01 1.00 -7.4 0 1 317.50 98.99
  L 317.50 110.07
  A 1.49 1.49 0.0 0 1 314.76 110.87
  L 309.07 101.95
  A 0.50 0.50 0.0 0 0 308.15 102.23
  L 308.30 110.67
  A 0.54 0.54 0.0 0 1 307.77 111.22
  L 306.89 111.26
  Q 306.25 111.28 306.25 110.64
  L 306.25 99.21
  A 1.43 1.43 0.0 0 1 308.89 98.44
  L 314.74 107.56
  A 0.41 0.41 0.0 0 0 315.50 107.37
  Z"
/>
<path fill="#a1a1a1" d="
  M 338.63 109.75
  L 343.96 109.75
  A 0.57 0.56 4.0 0 1 344.52 110.39
  L 344.47 110.77
  Q 344.41 111.25 343.92 111.25
  L 336.63 111.25
  Q 336.00 111.25 336.00 110.62
  L 336.00 98.82
  A 0.80 0.79 81.6 0 1 336.56 98.06
  Q 337.26 97.84 337.66 98.26
  Q 338.00 98.62 338.00 99.11
  L 338.00 109.13
  Q 338.00 109.75 338.63 109.75
  Z"
/>
<path fill="#a1a1a1" d="
  M 353.0935 111.4641
  A 6.77 6.47 87.6 0 1 346.3457 104.9709
  A 6.77 6.47 87.6 0 1 352.5265 97.9359
  A 6.77 6.47 87.6 0 1 359.2743 104.4291
  A 6.77 6.47 87.6 0 1 353.0935 111.4641
  Z
  M 352.6957 109.7487
  A 5.04 4.52 91.3 0 0 357.3288 104.8125
  A 5.04 4.52 91.3 0 0 352.9243 99.6713
  A 5.04 4.52 91.3 0 0 348.2912 104.6075
  A 5.04 4.52 91.3 0 0 352.6957 109.7487
  Z"
/>
<path fill="#a1a1a1" d="
  M 382.93 103.59
  C 384.33 101.82 385.82 97.74 387.97 97.99
  A 0.51 0.51 0.0 0 1 388.34 98.78
  L 383.78 105.65
  Q 383.50 106.08 383.50 106.59
  L 383.50 110.75
  Q 383.50 111.25 383.00 111.25
  L 382.27 111.25
  Q 381.69 111.25 381.60 110.68
  Q 381.27 108.78 381.72 106.93
  A 1.34 1.32 35.1 0 0 381.53 105.87
  L 376.59 98.66
  A 0.40 0.40 0.0 0 1 376.82 98.05
  C 379.24 97.42 381.09 102.03 382.26 103.58
  Q 382.59 104.02 382.93 103.59
  Z"
/>
</svg>
